<?xml version="1.0" encoding="utf-8"?>
<!-- Generator: Adobe Illustrator 15.0.0, SVG Export Plug-In . SVG Version: 6.00 Build 0)  -->
<!DOCTYPE svg PUBLIC "-//W3C//DTD SVG 1.1//EN" "http://www.w3.org/Graphics/SVG/1.1/DTD/svg11.dtd">
<svg version="1.1" id="Layer_1" xmlns="http://www.w3.org/2000/svg" xmlns:xlink="http://www.w3.org/1999/xlink" x="0px" y="0px"
	 width="288px" height="288px" viewBox="0 0 288 288" enable-background="new 0 0 288 288" xml:space="preserve">
<g>
	<line fill="none" stroke="#AC1F24" stroke-width="3" x1="25.798" y1="145.623" x2="250.614" y2="145.623"/>
	<line fill="none" stroke="#AC1F24" stroke-width="3" x1="25.798" y1="134.879" x2="250.614" y2="134.879"/>
	<line fill="none" stroke="#AC1F24" stroke-width="3" x1="25.798" y1="124.231" x2="250.614" y2="124.231"/>
	<line fill="none" stroke="#AC1F24" stroke-width="3" x1="25.798" y1="113.476" x2="250.614" y2="113.476"/>
	<line fill="none" stroke="#AC1F24" stroke-width="3" x1="25.798" y1="102.825" x2="250.614" y2="102.825"/>
	<line fill="none" stroke="#AC1F24" stroke-width="3" x1="36.502" y1="92.063" x2="250.614" y2="92.063"/>
	<line fill="none" stroke="#AC1F24" stroke-width="3" x1="47.205" y1="81.418" x2="239.893" y2="81.418"/>
	<line fill="none" stroke="#AC1F24" stroke-width="3" x1="47.205" y1="70.664" x2="229.2" y2="70.664"/>
	<line fill="none" stroke="#AC1F24" stroke-width="3" x1="57.901" y1="60.012" x2="218.493" y2="60.012"/>
	<line fill="none" stroke="#AC1F24" stroke-width="3" x1="68.611" y1="49.257" x2="207.802" y2="49.257"/>
	<line fill="none" stroke="#AC1F24" stroke-width="3" x1="239.893" y1="81.418" x2="239.893" y2="146.026"/>
	<line fill="none" stroke="#AC1F24" stroke-width="3" x1="229.2" y1="70.664" x2="229.2" y2="146.026"/>
	<line fill="none" stroke="#AC1F24" stroke-width="3" x1="218.493" y1="60.012" x2="218.493" y2="146.026"/>
	<line fill="none" stroke="#AC1F24" stroke-width="3" x1="207.802" y1="49.257" x2="207.802" y2="146.026"/>
	<line fill="none" stroke="#AC1F24" stroke-width="3" x1="197.087" y1="38.613" x2="197.087" y2="146.026"/>
	<line fill="none" stroke="#AC1F24" stroke-width="3" x1="186.388" y1="27.851" x2="186.388" y2="146.026"/>
	<line fill="none" stroke="#AC1F24" stroke-width="3" x1="175.695" y1="27.851" x2="175.695" y2="146.026"/>
	<line fill="none" stroke="#AC1F24" stroke-width="3" x1="164.981" y1="27.851" x2="164.981" y2="146.026"/>
	<line fill="none" stroke="#AC1F24" stroke-width="3" x1="154.285" y1="27.851" x2="154.285" y2="146.026"/>
	<line fill="none" stroke="#AC1F24" stroke-width="3" x1="143.579" y1="27.851" x2="143.579" y2="146.026"/>
	<line fill="none" stroke="#AC1F24" stroke-width="3" x1="132.816" y1="27.851" x2="132.816" y2="146.026"/>
	<line fill="none" stroke="#AC1F24" stroke-width="3" x1="122.12" y1="27.851" x2="122.12" y2="146.026"/>
	<line fill="none" stroke="#AC1F24" stroke-width="3" x1="111.417" y1="27.851" x2="111.417" y2="146.026"/>
	<line fill="none" stroke="#AC1F24" stroke-width="3" x1="100.714" y1="27.851" x2="100.714" y2="146.026"/>
	<line fill="none" stroke="#AC1F24" stroke-width="3" x1="90.014" y1="48.377" x2="90.014" y2="146.026"/>
	<line fill="none" stroke="#AC1F24" stroke-width="3" x1="79.314" y1="49.257" x2="79.314" y2="146.026"/>
	<line fill="none" stroke="#AC1F24" stroke-width="3" x1="68.611" y1="48.377" x2="68.611" y2="146.026"/>
	<line fill="none" stroke="#AC1F24" stroke-width="3" x1="57.901" y1="60.012" x2="57.901" y2="146.026"/>
	<line fill="none" stroke="#AC1F24" stroke-width="3" x1="47.205" y1="70.664" x2="47.205" y2="146.026"/>
	<line fill="none" stroke="#AC1F24" stroke-width="3" x1="36.502" y1="92.063" x2="36.502" y2="146.026"/>
	<path fill="#AC1F24" stroke="#AC1F24" stroke-width="3" d="M37.933,48.473l14.966,7.487l4.196-4.163l-7.42-14.933l6.111-5.091
		l13.472,9.945l5.036-3.52l-4.714-15.99l6.906-3.956l11.542,12.112l5.697-2.647l-1.863-16.563l7.494-2.699l9.258,13.942l5.93-1.586
		l1.028-16.648l7.845-1.354l6.714,15.325l6.045-0.529l3.875-16.219l7.957,0.015l3.978,16.256l6.111,0.533l6.626-15.31l7.838,1.39
		l1.109,16.704l6.699,1.804l9.265-13.875l7.453,2.776l-1.9,16.63l5.554,2.61l11.52-12.063l6.862,4.019l-4.739,16.042l5.841,4.148
		l13.502-9.779l6.02,5.194l-7.558,14.922l4.304,4.385l14.98-7.298l5.043,6.155L246.48,70.039l3.35,4.862l16.023-4.636l3.912,6.928
		L257.58,88.676l2.573,5.575l16.578-1.793l2.661,7.498l-13.975,9.209l1.228,4.618l16.651,0.92l1.405,7.831l-15.276,6.81l0.576,6.115
		l16.238,3.778l0.029,7.957l-16.223,4.074l-0.496,6.052l15.358,6.522l-1.346,7.838l-16.682,1.212l-1.553,5.945l13.99,9.08
		l-2.662,7.483l-16.659-1.686l-2.892,6.329l12.134,11.424l-3.971,6.906l-16.082-4.65l-3.505,5.043l9.982,13.368l-5.103,6.108
		l-15.032-7.365l-4.097,4.155l7.55,14.87l-6.071,5.14l-13.554-9.806l-5.006,3.557l4.873,15.957l-6.854,4.016l-11.668-12.009
		l-5.486,2.625l2.063,16.541l-7.461,2.78l-9.42-13.827l-5.916,1.649l-0.828,16.659l-7.838,1.435l-6.892-15.24l-6.906,0.65
		l-3.812,16.246l-7.956,0.015l-4.045-16.238l-6.122-0.495l-6.548,15.336l-7.838-1.354l-1.183-16.696l-6.932-1.841l-9.209,13.894
		l-7.476-2.751l1.859-16.622l-5.557-2.603l-11.476,12.09l-6.891-4.001l4.71-16.045l-4.847-3.387l-13.38,9.952l-6.093-5.116
		l7.379-15.019l-4.355-4.34l-14.903,7.498l-5.117-6.094l9.868-13.517l-3.624-5.131l-15.975,4.783l-3.978-6.898l12.063-11.587
		l-2.618-5.553l-16.556,1.952l-2.736-7.476l13.887-9.34l-1.597-5.855l-16.645-0.917l-1.401-7.838l15.288-6.803l-0.573-6.123
		L1.39,148.377l-0.03-7.959l16.23-4.06l0.584-6.932l-15.298-6.633l1.401-7.831l16.696-1.09l1.575-5.934l-13.92-9.184l2.736-7.468
		l16.637,1.808l3.043-6.481L19.011,75.066l4.03-6.862l16.045,4.784l3.542-5.006L32.209,55.96L37.933,48.473 M143.819,36.191
		c-59.461,0-107.65,48.192-107.65,107.657c0,59.451,48.188,107.639,107.65,107.639c59.443,0,107.646-48.188,107.646-107.639
		C251.465,84.383,203.262,36.191,143.819,36.191z"/>
	<g>
		<defs>
			<path id="SVGID_1_" d="M251.465,144.64c0,59.457-48.188,107.653-107.646,107.653c-59.461,0-107.65-48.196-107.65-107.653
				c0-59.446,48.188-107.646,107.65-107.646C203.276,36.994,251.465,85.193,251.465,144.64z"/>
		</defs>
		<clipPath id="SVGID_2_">
			<use xlink:href="#SVGID_1_"  overflow="visible"/>
		</clipPath>
		<g clip-path="url(#SVGID_2_)">
			<rect x="47.068" y="102.854" fill="#AC1F24" stroke="#AC1F24" stroke-width="3" width="10.703" height="42.769"/>
			<rect x="57.771" y="81.459" fill="#AC1F24" stroke="#AC1F24" stroke-width="3" width="10.707" height="64.164"/>
			<rect x="111.28" y="199.254" fill="#AC1F24" stroke="#AC1F24" stroke-width="3" width="32.539" height="56.854"/>
			<rect x="100.573" y="220.534" fill="#AC1F24" stroke="#AC1F24" stroke-width="3" width="10.707" height="35.574"/>
			<rect x="79.17" y="199.254" fill="#AC1F24" stroke="#AC1F24" stroke-width="3" width="21.403" height="46.725"/>
			<rect x="68.479" y="209.895" fill="#AC1F24" stroke="#AC1F24" stroke-width="3" width="10.692" height="28.438"/>
			<rect x="52.422" y="199.254" fill="#AC1F24" stroke="#AC1F24" stroke-width="3" width="16.057" height="28.424"/>
			<rect x="79.17" y="113.517" fill="#AC1F24" stroke="#AC1F24" stroke-width="3" width="10.711" height="32.106"/>
			<rect x="89.881" y="124.261" fill="#AC1F24" stroke="#AC1F24" stroke-width="3" width="10.692" height="21.362"/>
			<rect x="111.28" y="49.275" fill="#AC1F24" stroke="#AC1F24" stroke-width="3" width="10.71" height="96.396"/>
			<rect x="121.991" y="81.459" fill="#AC1F24" stroke="#AC1F24" stroke-width="3" width="10.696" height="64.212"/>
			<rect x="132.687" y="60.053" fill="#AC1F24" stroke="#AC1F24" stroke-width="3" width="11.132" height="85.618"/>
		</g>
		
			<rect x="36.169" y="145.671" clip-path="url(#SVGID_2_)" fill="none" stroke="#AC1F24" stroke-width="3" width="215.296" height="53.465"/>
		<use xlink:href="#SVGID_1_"  overflow="visible" fill="none" stroke="#AC1F24" stroke-width="3"/>
	</g>
	<g>
		<polygon fill="none" stroke="#AC1F24" stroke-width="3" stroke-linecap="round" stroke-linejoin="round" points="238.029,188.938 
			49.579,188.938 49.579,155.265 181.094,155.265 238.029,155.265 		"/>
		<g>
			<path fill="#AC1F24" stroke="#AC1F24" stroke-width="3" stroke-linecap="round" stroke-linejoin="round" d="M197.938,186.21
				c0,5.287-4.304,9.561-9.62,9.561h-13.302c-5.324,0-9.628-4.273-9.628-9.561v-28.209c0-5.269,4.304-9.535,9.628-9.535h13.302
				c5.316,0,9.62,4.267,9.62,9.535V186.21z M197.687,155.265h-32.299v33.142h32.299V155.265z"/>
			
				<line fill="none" stroke="#AC1F24" stroke-width="3" stroke-linecap="round" stroke-linejoin="round" x1="181.094" y1="155.265" x2="181.094" y2="188.938"/>
		</g>
		<path fill="none" stroke="#AC1F24" stroke-width="3" stroke-linecap="round" stroke-linejoin="round" d="M232.144,174.734"/>
		<polyline fill="none" stroke="#AC1F24" stroke-width="3" stroke-linecap="round" stroke-linejoin="round" points="
			237.238,166.238 230.45,166.238 228.749,169.64 227.057,166.238 225.355,162.837 223.655,166.238 221.954,169.64 220.261,166.238 
			218.561,162.837 216.859,166.238 215.166,169.64 213.466,166.238 211.765,162.837 210.064,166.238 208.363,166.238 
			204.977,166.238 191.386,166.238 135.337,166.238 133.641,169.64 131.94,166.238 130.243,162.837 128.542,166.238 126.845,169.64 
			125.148,166.238 123.444,162.837 121.75,166.238 120.054,169.64 118.353,166.238 116.652,162.837 114.955,166.238 82.69,166.238 
			80.989,169.64 79.292,166.238 77.592,162.837 75.891,166.238 74.194,169.64 72.497,166.238 70.793,162.837 69.103,166.238 
			67.402,169.64 65.706,166.238 64.008,162.837 62.304,166.238 50.418,166.238 		"/>
		<path fill="none" stroke="#AC1F24" stroke-width="3" stroke-linecap="round" stroke-linejoin="round" d="M240.64,179.829"/>
		<polyline fill="none" stroke="#AC1F24" stroke-width="3" stroke-linecap="round" stroke-linejoin="round" points="
			237.238,178.128 221.954,178.128 220.261,181.522 218.561,178.128 216.859,174.734 215.166,178.128 213.466,181.522 
			211.765,178.128 210.064,174.734 208.363,178.128 206.678,181.522 204.977,178.128 203.276,174.734 201.575,178.128 
			196.488,178.128 184.591,178.128 157.417,178.128 155.716,181.522 154.026,178.128 152.318,174.734 150.625,178.128 
			148.928,181.522 147.224,178.128 145.526,174.734 143.83,178.128 142.129,181.522 140.439,178.128 138.735,174.734 
			137.031,178.128 104.766,178.128 103.069,181.522 101.372,178.128 99.671,174.734 97.971,178.128 96.277,181.522 94.573,178.128 
			92.879,174.734 91.179,178.128 89.482,181.522 87.785,178.128 86.084,174.734 84.387,178.128 50.407,178.128 		"/>
	</g>
	<g>
		<g>
		</g>
	</g>
	<g>
		<line fill="none" stroke="#AC1F24" stroke-width="3" x1="84.531" y1="242.377" x2="218.302" y2="242.377"/>
		<line fill="none" stroke="#AC1F24" stroke-width="3" x1="62.607" y1="230.479" x2="234.14" y2="230.479"/>
		<line fill="none" stroke="#AC1F24" stroke-width="3" x1="62.607" y1="220.971" x2="234.14" y2="220.971"/>
		<line fill="none" stroke="#AC1F24" stroke-width="3" x1="62.607" y1="211.572" x2="257.27" y2="211.572"/>
		<line fill="none" stroke="#AC1F24" stroke-width="3" x1="47.001" y1="199.557" x2="239.708" y2="199.557"/>
		<line fill="none" stroke="#AC1F24" stroke-width="3" x1="239.708" y1="199.291" x2="239.708" y2="232.558"/>
		<line fill="none" stroke="#AC1F24" stroke-width="3" x1="229.001" y1="199.35" x2="229.001" y2="230.479"/>
		<line fill="none" stroke="#AC1F24" stroke-width="3" x1="218.302" y1="199.35" x2="218.302" y2="242.377"/>
		<line fill="none" stroke="#AC1F24" stroke-width="3" x1="207.595" y1="199.35" x2="207.595" y2="242.377"/>
		<line fill="none" stroke="#AC1F24" stroke-width="3" x1="196.902" y1="199.35" x2="196.902" y2="253.121"/>
		<line fill="none" stroke="#AC1F24" stroke-width="3" x1="186.195" y1="199.35" x2="186.195" y2="253.121"/>
		<line fill="none" stroke="#AC1F24" stroke-width="3" x1="175.488" y1="199.35" x2="175.488" y2="253.121"/>
		<line fill="none" stroke="#AC1F24" stroke-width="3" x1="164.781" y1="199.35" x2="164.781" y2="253.121"/>
		<line fill="none" stroke="#AC1F24" stroke-width="3" x1="154.086" y1="199.35" x2="154.086" y2="253.121"/>
		<line fill="none" stroke="#AC1F24" stroke-width="3" x1="143.323" y1="199.35" x2="143.323" y2="253.121"/>
		<line fill="none" stroke="#AC1F24" stroke-width="3" x1="132.624" y1="199.35" x2="132.624" y2="253.121"/>
		<line fill="none" stroke="#AC1F24" stroke-width="3" x1="121.92" y1="199.35" x2="121.92" y2="253.121"/>
		<line fill="none" stroke="#AC1F24" stroke-width="3" x1="111.217" y1="199.35" x2="111.217" y2="253.121"/>
		<line fill="none" stroke="#AC1F24" stroke-width="3" x1="100.518" y1="199.35" x2="100.518" y2="253.121"/>
		<line fill="none" stroke="#AC1F24" stroke-width="3" x1="89.818" y1="199.35" x2="89.818" y2="253.121"/>
		<line fill="none" stroke="#AC1F24" stroke-width="3" x1="79.115" y1="199.068" x2="79.115" y2="239.723"/>
		<line fill="none" stroke="#AC1F24" stroke-width="3" x1="68.408" y1="201.361" x2="68.408" y2="239.094"/>
	</g>
</g>
</svg>
